<?xml version="1.0" encoding="UTF-8" standalone="no"?>
<!-- Generator: Adobe Illustrator 16.0.3, SVG Export Plug-In . SVG Version: 6.00 Build 0)  -->

<svg
   xmlns:dc="http://purl.org/dc/elements/1.1/"
   xmlns:cc="http://creativecommons.org/ns#"
   xmlns:rdf="http://www.w3.org/1999/02/22-rdf-syntax-ns#"
   xmlns:svg="http://www.w3.org/2000/svg"
   xmlns="http://www.w3.org/2000/svg"
   xmlns:sodipodi="http://sodipodi.sourceforge.net/DTD/sodipodi-0.dtd"
   xmlns:inkscape="http://www.inkscape.org/namespaces/inkscape"
   version="1.1"
   id="Layer_1"
   x="0px"
   y="0px"
   width="648px"
   height="579px"
   viewBox="0 0 648 579"
   enable-background="new 0 0 648 579"
   xml:space="preserve"
   inkscape:version="0.48.4 r9939"
   sodipodi:docname="hand_and_tablet.svg"><metadata
     id="metadata15"><rdf:RDF><cc:Work
         rdf:about=""><dc:format>image/svg+xml</dc:format><dc:type
           rdf:resource="http://purl.org/dc/dcmitype/StillImage" /><dc:title></dc:title></cc:Work></rdf:RDF></metadata><defs
     id="defs13"><linearGradient
       id="linearGradient3768"><stop
         style="stop-color:#e2e2e2;stop-opacity:1;"
         offset="0"
         id="stop3770" /><stop
         id="stop3776"
         offset="0.40000001"
         style="stop-color:#c6d4e2;stop-opacity:1;" /><stop
         style="stop-color:#cddae6;stop-opacity:1;"
         offset="0.60000002"
         id="stop3760" /><stop
         style="stop-color:#ffffff;stop-opacity:1;"
         offset="1"
         id="stop3772" /></linearGradient></defs><sodipodi:namedview
     pagecolor="#ffffff"
     bordercolor="#666666"
     borderopacity="1"
     objecttolerance="10"
     gridtolerance="10"
     guidetolerance="10"
     inkscape:pageopacity="0"
     inkscape:pageshadow="2"
     inkscape:window-width="1912"
     inkscape:window-height="996"
     id="namedview11"
     showgrid="false"
     inkscape:zoom="0.57643247"
     inkscape:cx="144.99669"
     inkscape:cy="460.13627"
     inkscape:window-x="0"
     inkscape:window-y="0"
     inkscape:window-maximized="1"
     inkscape:current-layer="g2992" /><g
     id="g2992"><path
       id="path3"
       d="M630,0H324H18C8.059,0,0,8.059,0,18v198v144c0,9.941,8.059,18,18,18h306h306c9.941,0,18-8.059,18-18V216V18  C648,8.059,639.941,0,630,0z"
       inkscape:export-filename="/home/marcansoft/karaoke/app/tablet.png"
       inkscape:export-xdpi="71.110001"
       inkscape:export-ydpi="71.110001" /><rect
       id="rect7"
       height="297"
       width="540"
       y="33.139824"
       x="54"
       style="fill:#b9b9b9;fill-opacity:1"
       inkscape:export-filename="/home/marcansoft/karaoke/app/tablet.png"
       inkscape:export-xdpi="71.110001"
       inkscape:export-ydpi="71.110001" /><rect
       id="rect7-7"
       height="22.032837"
       width="540"
       y="33.13982"
       x="54"
       style="fill:#4488cc;fill-opacity:1"
       inkscape:export-filename="/home/marcansoft/karaoke/app/tablet.png"
       inkscape:export-xdpi="71.110001"
       inkscape:export-ydpi="71.110001" /><path
       inkscape:connector-curvature="0"
       d="M 18,0 C 8.059,0 0,8.059 0,18 L 0,216 0,296.28125 648,74.1875 648,18 C 648,8.059 639.941,0 630,0 L 324,0 18,0 z"
       id="path3-6"
       style="fill:#ffffff;fill-opacity:0.22897196"
       inkscape:export-filename="/home/marcansoft/karaoke/app/tablet.png"
       inkscape:export-xdpi="71.110001"
       inkscape:export-ydpi="71.110001" /></g><g
     id="g2996"
     transform="matrix(0.90337826,-0.42884463,0.42884463,0.90337826,718.77231,-14.444874)"
     inkscape:export-filename="/home/marcansoft/karaoke/hand.png"
     inkscape:export-xdpi="71.110001"
     inkscape:export-ydpi="71.110001"><path
       id="path5"
       d="m 279,579 c -10.467,0 -20,-9.533 -20,-20 0,-32.654 -12.38,-49.086 -25.487,-66.482 C 219.68,474.156 204,453.346 204,414 v -45 c 0,-21.514 15.682,-40.146 36,-44.854 V 153 c 0,-20.402 16.598,-37 37,-37 20.402,0 37,16.598 37,37 v 102.142 c 5.093,-2.646 10.875,-4.142 17,-4.142 15.737,0 29.211,9.875 34.55,23.755 5.845,-3.643 12.775,-5.755 20.2,-5.755 14.435,0 27.182,8.096 33.511,19.988 C 422.999,287.674 426.94,287 431,287 c 20.187,0 36,16.252 36,37 v 90 c 0,38.273 -9.396,57.871 -18.483,76.823 C 440.023,508.54 432,525.273 432,559 c 0,11.215 -7.907,20 -18,20 H 279 z"
       inkscape:connector-curvature="0"
       style="fill:#ffffff" /><path
       id="path9"
       d="m 431,297 c -6.957,0 -12.798,2.633 -17.585,6.954 C 412.368,289.999 399.973,279 385.75,279 370.838,279 358,291.088 358,306 v -18 c 0,-14.912 -12.088,-27 -27,-27 -14.912,0 -27,12.088 -27,27 V 153 c 0,-14.912 -12.088,-27 -27,-27 -14.912,0 -27,12.088 -27,27 v 171 9 c -19,0 -36,16.117 -36,36 v 45 c 0,72 55,73 55,145 0,4.971 5.029,10 10,10 h 135 c 4.971,0 8,-5.029 8,-10 0,-72 35,-73 35,-145 v -27 -63 c 0,-14.912 -11.088,-27 -26,-27 z"
       inkscape:connector-curvature="0" /></g></svg>